<svg width="100" height="104" viewBox="0 0 100 104" fill="none" xmlns="http://www.w3.org/2000/svg">
<circle cx="50" cy="50" r="49" stroke="#BBBBBB" stroke-width="2"/>
<path d="M32.064 34.32C32.064 34.192 33.0453 33.104 35.008 31.056C37.0133 28.9653 38.2293 27.92 38.656 27.92C39.0827 27.92 39.296 28.7733 39.296 30.48C39.296 33.936 39.744 37.584 40.64 41.424C41.5787 45.2213 42.688 48.6133 43.968 51.6C45.248 54.5867 46.5707 57.36 47.936 59.92C49.3013 62.48 50.432 64.464 51.328 65.872C52.2667 67.2373 52.8213 67.984 52.992 68.112C54.5707 47.9307 57.4507 35.1947 61.632 29.904C62.912 28.3253 64.256 27.5147 65.664 27.472C66.3893 27.472 66.9653 27.7067 67.392 28.176C67.8187 28.6453 68.032 29.3707 68.032 30.352C68.032 31.3333 67.584 32.72 66.688 34.512C65.8347 36.2613 65.0667 37.136 64.384 37.136C64.128 37.136 63.936 36.9653 63.808 36.624C63.68 36.24 63.5733 36.048 63.488 36.048C62.1653 36.048 60.864 38.0747 59.584 42.128C58.304 46.1813 57.3013 50.5973 56.576 55.376C55.8507 60.112 55.488 63.9733 55.488 66.96L55.808 72.464C53.9307 74.8533 52.6507 76.3467 51.968 76.944C51.328 77.584 50.816 77.904 50.432 77.904C49.7493 77.904 48.4267 76.304 46.464 73.104C44.5013 69.904 42.4533 66.1067 40.32 61.712C38.1867 57.3173 36.288 52.5173 34.624 47.312C32.96 42.1067 32.1067 37.776 32.064 34.32Z" fill="#545454"/>
</svg>
